HIERARCHY
ROOT Hips
{
	OFFSET 0.000000 0.000000 0.000000
	CHANNELS 6 Xposition Yposition Zposition Zrotation Yrotation Xrotation 
	JOINT LHipJoint
	{
		OFFSET 0.000000 0.000000 0.000000
		CHANNELS 3 Zrotation Yrotation Xrotation
		JOINT LeftUpLeg
		{
			OFFSET 1.363060 -1.794630 0.839290
			CHANNELS 3 Zrotation Yrotation Xrotation
			JOINT LeftLeg
			{
				OFFSET 2.448110 -6.726130 0.000000
				CHANNELS 3 Zrotation Yrotation Xrotation
				JOINT LeftFoot
				{
					OFFSET 2.562200 -7.039590 0.000000
					CHANNELS 3 Zrotation Yrotation Xrotation
					JOINT LeftToeBase
					{
						OFFSET 0.157640 -0.433110 2.322550
						CHANNELS 3 Zrotation Yrotation Xrotation
						End Site
						{
							OFFSET 0.000000 0.000000 0.000000
						}
					}
				}
			}
		}
	}
	JOINT RHipJoint
	{
		OFFSET 0.000000 0.000000 0.000000
		CHANNELS 3 Zrotation Yrotation Xrotation
		JOINT RightUpLeg
		{
			OFFSET -1.305520 -1.794630 0.839290
			CHANNELS 3 Zrotation Yrotation Xrotation
			JOINT RightLeg
			{
				OFFSET -2.542530 -6.985550 0.000000
				CHANNELS 3 Zrotation Yrotation Xrotation
				JOINT RightFoot
				{
					OFFSET -2.568260 -7.056230 0.000000
					CHANNELS 3 Zrotation Yrotation Xrotation
					JOINT RightToeBase
					{
						OFFSET -0.164730 -0.452590 2.363150
						CHANNELS 3 Zrotation Yrotation Xrotation
						End Site
						{
							OFFSET 0.000000 0.000000 0.000000
						}
					}
				}
			}
		}
	}
}
MOTION
Frames: 22
Frame Time: 0.008333
12.267949 15.364146 1.262600 -54.739315 -88.200446 93.851691 -8.066129 -2.243603 0.864456 -11.440106 -7.869807 -85.169878 -1.273764 4.156952 49.797542 0.165967 -0.280621 0.281781 0.312500 -0.000000 -37.221900 8.111811 0.837052 1.492029 12.826328 6.487541 -85.416265 2.027058 -5.782516 49.098314 1.021095 5.396227 4.592410 0.851600 -0.000000 -71.774501
12.093062 15.020573 1.241138 -49.393541 -88.152279 87.946971 -8.021772 -2.593659 0.741826 -10.821439 -8.509176 -86.684739 -0.844570 4.508460 55.737201 0.495644 0.523416 -5.221962 0.243900 0.000000 -31.216200 7.980634 1.181351 1.306995 11.923438 6.965804 -87.079097 1.368676 -6.172797 55.417347 0.770608 4.979192 -0.227542 0.507000 0.000000 -67.970800
11.923630 14.683398 1.219161 -44.571375 -88.083414 82.595880 -7.993544 -2.960680 0.595329 -10.237894 -9.123161 -88.250324 -0.408621 4.862639 61.647010 0.862627 1.462418 -10.445323 0.019000 -0.000001 -25.856201 7.863497 1.562233 1.119958 11.089940 7.460974 -88.737446 0.719737 -6.513180 61.641104 0.478510 4.376737 -4.883097 0.223800 0.000000 -64.231900
11.760300 14.357748 1.196934 -40.387119 -87.992057 77.924932 -7.984019 -3.337325 0.425541 -9.689367 -9.695721 -89.821214 0.045514 5.216439 67.383913 1.243416 2.519673 -15.153017 -0.354100 -0.000000 -21.785000 7.764718 1.958390 0.930064 10.350862 7.971499 -90.345061 0.079534 -6.813568 67.619997 0.153071 3.566983 -9.179307 0.043600 0.000001 -60.939100
11.603460 14.048224 1.174556 -36.845071 -87.882025 73.952521 -7.991761 -3.715885 0.235622 -9.176592 -10.215994 -91.356650 0.523998 5.563539 72.828938 1.612363 3.655345 -19.198543 -0.842800 -0.000000 -19.353100 7.684653 2.352567 0.737199 9.713332 8.494316 -91.867131 -0.555880 -7.080299 73.238427 -0.194999 2.544734 -12.978041 -0.005501 0.000000 -58.459600
11.453283 13.758826 1.152131 -33.814331 -87.761391 70.546380 -8.013813 -4.088297 0.024020 -8.714590 -10.668313 -92.801818 1.022220 5.897657 77.897206 1.947209 4.801879 -22.561370 -1.400700 0.000000 -18.250701 7.620847 2.733766 0.534825 9.182395 9.009506 -93.258102 -1.185810 -7.316932 78.423839 -0.551214 1.345859 -16.229840 0.083600 -0.000000 -56.776100
11.309551 13.492522 1.129709 -31.152653 -87.635845 67.570607 -8.046069 -4.445793 -0.205742 -8.309180 -11.047768 -94.117468 1.530562 6.210895 82.517088 2.231889 5.890979 -25.251242 -1.971600 0.000000 -18.350099 7.569625 3.093510 0.322757 8.751055 9.506463 -94.488581 -1.804402 -7.522742 83.117716 -0.902918 0.016857 -18.925252 0.296200 -0.000000 -55.887800
11.171780 13.251105 1.107326 -28.683708 -87.509063 64.858059 -8.084425 -4.778918 -0.446954 -7.965205 -11.357536 -95.278532 2.033976 6.496678 86.639848 2.457742 6.856903 -27.328250 -2.503400 -0.000000 -19.421900 7.527565 3.425634 0.104551 8.406953 9.974230 -95.543591 -2.400462 -7.696645 87.283666 -1.238398 -1.377709 -21.096582 0.602200 0.000000 -55.753100
11.039331 13.035429 1.085041 -26.276960 -87.382927 62.277277 -8.126162 -5.079542 -0.695396 -7.691821 -11.599867 -96.260081 2.513834 6.751870 90.246463 2.623678 7.644508 -28.908757 -2.960699 0.000000 -21.044200 7.492627 3.726302 -0.118589 8.143405 10.397734 -96.406968 -2.958535 -7.840077 90.915473 -1.547096 -2.754567 -22.833748 0.963900 0.000000 -56.081800
10.911575 12.845499 1.063037 -23.880254 -87.257864 59.770560 -8.170600 -5.341522 -0.946962 -7.495537 -11.778011 -97.042862 2.952276 6.976152 93.341224 2.734925 8.221933 -30.130584 -3.328000 -0.000000 -22.819700 7.464031 3.992909 -0.345190 7.956341 10.764653 -97.066785 -3.463154 -7.956380 94.027758 -1.821615 -4.034683 -24.251768 1.347300 -0.000000 -56.574600
10.787549 12.680432 1.041464 -21.455675 -87.133180 57.300516 -8.217309 -5.560121 -1.194490 -7.378042 -11.902433 -97.627907 3.335169 7.171247 95.946533 2.801297 8.583689 -31.128072 -3.607700 -0.000000 -24.441000 7.442278 4.224002 -0.569656 7.836555 11.068754 -97.531544 -3.902477 -8.050424 96.650617 -2.057981 -5.155463 -25.464275 1.727000 -0.000000 -57.038000
10.666437 12.538537 1.020505 -18.990011 -87.008057 54.856545 -8.265481 -5.732864 -1.429132 -7.336307 -11.987385 -98.034916 3.653983 7.340375 98.100881 2.835306 8.748596 -32.017359 -3.814700 0.000000 -25.702700 7.428429 4.419660 -0.783783 7.771025 11.309450 -97.828076 -4.270278 -8.127999 98.829028 -2.255873 -6.077511 -26.572627 2.088300 -0.000000 -57.358300
10.547517 12.418029 1.000402 -16.516083 -86.882409 52.467708 -8.314874 -5.860336 -1.644648 -7.364792 -12.044018 -98.285604 3.905581 7.487586 99.855253 2.850366 8.752004 -32.895428 -3.970800 -0.000000 -26.451200 7.423446 4.581586 -0.981626 7.748388 11.488334 -97.983940 -4.565666 -8.194682 100.618435 -2.418107 -6.785182 -27.660243 2.425100 0.000000 -57.444200
10.430172 12.316920 0.981275 -14.061483 -86.757335 50.160946 -8.364311 -5.945096 -1.834556 -7.453229 -12.084261 -98.413241 4.092480 7.616625 101.265758 2.859124 8.639618 -33.822442 -4.097500 -0.000000 -26.640001 7.428006 4.712576 -1.156252 7.754223 11.612071 -98.037427 -4.793309 -8.255018 102.078381 -2.550079 -7.286751 -28.777518 2.736100 -0.000000 -57.277600
10.313927 12.233369 0.963327 -11.652782 -86.634507 47.963135 -8.411983 -5.991438 -1.993246 -7.588059 -12.118959 -98.457119 4.221632 7.730408 102.388125 2.872087 8.460033 -34.820663 -4.212300 0.000000 -26.319500 7.441985 4.816082 -1.301245 7.773260 11.690233 -98.030896 -4.961847 -8.312030 103.266359 -2.658694 -7.609489 -29.940092 3.021800 0.000000 -56.887700
10.198670 12.165832 0.946617 -9.311165 -86.516540 45.893513 -8.455670 -6.005043 -2.116770 -7.753531 -12.157185 -98.457030 4.303021 7.830779 103.274252 2.896487 8.258087 -35.878777 -4.327500 0.000000 -25.606400 7.464355 4.896130 -1.411541 7.790328 11.734576 -98.005700 -5.082353 -8.367010 104.233967 -2.751145 -7.793224 -31.133148 3.283199 -0.000000 -56.336500
10.084211 12.113173 0.931202 -7.042666 -86.406623 43.960417 -8.493048 -5.991599 -2.202428 -7.933208 -12.205963 -98.449500 4.347167 7.918296 103.964605 2.935792 8.070016 -36.959060 -4.449600 0.000000 -24.673600 7.493632 4.956333 -1.483464 7.792186 11.757580 -97.998170 -5.166601 -8.419641 105.022717 -2.833791 -7.883767 -32.317586 3.520900 0.000000 -55.709000
9.970676 12.074695 0.917116 -4.852467 -86.307947 42.168169 -8.522501 -5.957020 -2.249926 -8.111507 -12.269511 -98.463014 4.364771 7.992880 104.492920 2.989485 7.920739 -38.008683 -4.580000 0.000000 -23.694100 7.527493 4.999968 -1.515762 7.768909 11.770618 -98.034604 -5.224879 -8.468226 105.659937 -2.911229 -7.925768 -33.441185 3.735600 -0.000001 -55.098600
9.858160 12.050126 0.904306 -2.734289 -86.223200 40.509784 -8.542792 -5.906173 -2.260780 -8.275280 -12.349431 -98.514700 4.363494 8.053409 104.876095 3.053696 7.822169 -38.969041 -4.714800 0.000000 -22.846600 7.563835 5.029650 -1.509638 7.714155 11.782791 -98.128914 -5.265707 -8.510288 106.162756 -2.985737 -7.957406 -34.448012 3.928200 0.000000 -54.597200
9.746921 12.039452 0.892697 -0.681101 -86.154869 38.974489 -8.553840 -5.843009 -2.238889 -8.415326 -12.444561 -98.608136 4.348619 8.098638 105.123520 3.122252 7.774177 -39.787826 -4.846600 -0.000000 -22.261200 7.600398 5.047161 -1.468692 7.625868 11.800142 -98.281107 -5.293411 -8.542806 106.532690 -3.057448 -8.005210 -35.289381 4.098600 0.000000 -54.275700
9.637238 12.042914 0.882223 1.315882 -86.104571 37.546697 -8.556204 -5.770178 -2.189783 -8.526557 -12.551589 -98.734515 4.321464 8.127064 105.232202 3.188166 7.766428 -40.425821 -4.964600 0.000000 -22.017600 7.635423 5.053806 -1.398928 7.505763 11.825194 -98.478249 -5.309209 -8.562999 106.764636 -3.124784 -8.082344 -35.931129 4.245200 0.000001 -54.171900
9.529250 12.060691 0.872760 3.266810 -86.073225 36.208286 -8.551345 -5.689265 -2.120101 -8.607889 -12.665481 -98.874001 4.280785 8.137454 105.195159 3.244984 7.781969 -40.862212 -5.058000 0.000000 -22.138500 7.667789 5.050048 -1.307572 7.358733 11.857507 -98.696571 -5.310523 -8.568524 106.845621 -3.185235 -8.187760 -36.358477 4.364600 -0.000000 -54.284500
